<svg viewBox="0 0 45 45" fill="none" xmlns="http://www.w3.org/2000/svg">
<path d="M36.3001 6.30005H8.69174C7.37144 6.30005 6.29999 7.3463 6.29999 8.63465V36.3623C6.29999 37.6525 7.37144 38.7001 8.69174 38.7001H36.3001C37.6213 38.7001 38.7 37.6525 38.7 36.3623V8.63465C38.7 7.3463 37.6213 6.30005 36.3001 6.30005ZM15.9093 33.9093H11.1015V18.4478H15.9093V33.9093ZM13.5054 16.3337C13.1394 16.3337 12.7771 16.2616 12.439 16.1215C12.1009 15.9814 11.7938 15.7761 11.5351 15.5172C11.2764 15.2584 11.0713 14.9511 10.9314 14.6129C10.7915 14.2748 10.7197 13.9123 10.7199 13.5464C10.7199 12.8077 11.0133 12.0993 11.5357 11.5769C12.058 11.0546 12.7665 10.7611 13.5052 10.7611C14.2439 10.7611 14.9523 11.0546 15.4747 11.5769C15.997 12.0993 16.2904 12.8077 16.2904 13.5464C16.2904 14.2852 15.9971 14.9939 15.4749 15.5165C14.9526 16.0392 14.2442 16.3331 13.5054 16.3337ZM33.9075 33.9093H29.1073V26.3907C29.1073 24.597 29.0722 22.2908 26.6094 22.2908C24.1083 22.2908 23.7271 24.2442 23.7271 26.2607V33.9098H18.9234V18.4478H23.5336V20.5592H23.5993C24.241 19.3442 25.8088 18.0621 28.147 18.0621C33.0097 18.0621 33.9079 21.2634 33.9079 25.4282V33.9093H33.9075Z" fill="currentColor"/>
</svg>
