<svg viewBox="0 0 34 34" fill="none" xmlns="http://www.w3.org/2000/svg">
<path d="M24.7917 12.7486C23.5236 12.7484 22.2751 13.0623 21.1579 13.6623C21.0559 13.3936 20.8746 13.1623 20.638 12.9991C20.4014 12.8359 20.1208 12.7485 19.8334 12.7486H14.1667C13.791 12.7486 13.4306 12.8978 13.165 13.1635C12.8993 13.4292 12.75 13.7895 12.75 14.1653V31.1653C12.75 31.541 12.8993 31.9013 13.165 32.167C13.4306 32.4327 13.791 32.5819 14.1667 32.5819H19.8334C20.2091 32.5819 20.5694 32.4327 20.8351 32.167C21.1008 31.9013 21.25 31.541 21.25 31.1653V23.3736C21.25 22.9979 21.3993 22.6375 21.665 22.3719C21.9306 22.1062 22.291 21.9569 22.6667 21.9569C23.0424 21.9569 23.4027 22.1062 23.6684 22.3719C23.9341 22.6375 24.0834 22.9979 24.0834 23.3736V31.1653C24.0834 31.541 24.2326 31.9013 24.4983 32.167C24.764 32.4327 25.1243 32.5819 25.5 32.5819H31.1667C31.5424 32.5819 31.9027 32.4327 32.1684 32.167C32.4341 31.9013 32.5834 31.541 32.5834 31.1653V20.5403C32.5807 18.4746 31.759 16.4943 30.2983 15.0336C28.8377 13.573 26.8574 12.7512 24.7917 12.7486ZM29.75 29.7486H26.9167V23.3736C26.9167 22.2464 26.4689 21.1654 25.6719 20.3684C24.8749 19.5714 23.7939 19.1236 22.6667 19.1236C21.5395 19.1236 20.4585 19.5714 19.6615 20.3684C18.8645 21.1654 18.4167 22.2464 18.4167 23.3736V29.7486H15.5834V15.5819H18.4167V16.5778C18.4166 16.8715 18.5077 17.1579 18.6774 17.3975C18.8472 17.6371 19.0872 17.818 19.3643 17.9152C19.6413 18.0125 19.9418 18.0212 20.224 17.9402C20.5063 17.8593 20.7564 17.6926 20.9398 17.4633C21.5758 16.6559 22.448 16.0673 23.4346 15.7796C24.4213 15.4919 25.4732 15.5195 26.4434 15.8585C27.4137 16.1975 28.2538 16.8311 28.8466 17.6706C29.4394 18.5102 29.7552 19.5139 29.75 20.5417V29.7486ZM9.91669 12.7486H4.25002C3.8743 12.7486 3.51397 12.8978 3.24829 13.1635C2.98261 13.4292 2.83336 13.7895 2.83336 14.1653V31.1653C2.83336 31.541 2.98261 31.9013 3.24829 32.167C3.51397 32.4327 3.8743 32.5819 4.25002 32.5819H9.91669C10.2924 32.5819 10.6527 32.4327 10.9184 32.167C11.1841 31.9013 11.3334 31.541 11.3334 31.1653V14.1653C11.3334 13.7895 11.1841 13.4292 10.9184 13.1635C10.6527 12.8978 10.2924 12.7486 9.91669 12.7486ZM8.50002 29.7486H5.66669V15.5819H8.50002V29.7486ZM7.10461 2.1845C6.48424 2.14671 5.86266 2.23557 5.27773 2.44568C4.69281 2.65579 4.15676 2.98275 3.70224 3.40666C3.24771 3.83056 2.88422 4.34254 2.6339 4.91142C2.38357 5.48031 2.25165 6.09418 2.24617 6.71568C2.24068 7.33718 2.36174 7.95329 2.60199 8.5265C2.84223 9.09971 3.19662 9.61803 3.64359 10.0499C4.09056 10.4818 4.62075 10.8181 5.20188 11.0385C5.78301 11.2589 6.40292 11.3588 7.02386 11.3319H7.06352C7.68424 11.3674 8.30569 11.2761 8.88999 11.0636C9.47429 10.8511 10.0092 10.5219 10.4622 10.096C10.9151 9.67014 11.2766 9.15648 11.5246 8.58636C11.7727 8.01624 11.902 7.40159 11.9048 6.77986C11.9076 6.15814 11.7838 5.54235 11.5409 4.97002C11.298 4.3977 10.9411 3.88081 10.492 3.45087C10.0429 3.02092 9.51095 2.68692 8.92859 2.4692C8.34622 2.25148 7.72562 2.15462 7.10461 2.1845ZM7.06352 8.49859H7.02386C6.77883 8.5285 6.53025 8.50567 6.29477 8.43163C6.0593 8.35758 5.84238 8.23404 5.65857 8.06928C5.47476 7.90452 5.32831 7.70236 5.22905 7.47636C5.12978 7.25036 5.07999 7.00574 5.08302 6.75892C5.08302 5.70067 5.87636 5.01784 7.10461 5.01784C7.35197 4.98528 7.60344 5.00605 7.84211 5.07876C8.08078 5.15146 8.30113 5.27441 8.48834 5.43934C8.67555 5.60427 8.82528 5.80736 8.92748 6.03497C9.02968 6.26258 9.08198 6.50942 9.08086 6.75892C9.08086 7.81575 8.28752 8.49859 7.06211 8.49859H7.06352Z" fill="currentColor"/>
</svg>
